<mxfile host="app.diagrams.net" modified="2023-09-14T02:57:51.372Z" agent="Mozilla/5.0 (Macintosh; Intel Mac OS X 10_15_7) AppleWebKit/537.36 (KHTML, like Gecko) Chrome/115.0.0.0 Safari/537.36" version="21.3.5" etag="7kPHBj8ZfDTxh3QmZfTh" type="github">
  <diagram name="第 1 页" id="Ev7APlbU4nRMXSNGm_3B">
    <mxGraphModel>
      <root>
        <mxCell id="0" />
        <mxCell id="1" parent="0" />
      </root>
    </mxGraphModel>
  </diagram>
</mxfile>
